C:\GBW_MyPrograms\KinderuniversiteitApp\Resultaten\Ellis\Smurf\Smurf_v4.mot
version=1
nRows=8
nColumns=29
inDegrees=yes
endheader
                time	         pelvis_tilt	           pelvis_tx	           pelvis_ty	       hip_flexion_l	       hip_flexion_r	        knee_angle_l	        knee_angle_r	       ankle_angle_l	       ankle_angle_r	    lumbar_extension	hamstrings_r/activation	bifemsh_r/activation	glut_max_r/activation	iliopsoas_r/activation	rect_fem_r/activation	  vasti_r/activation	gastroc_r/activation	 soleus_r/activation	tib_ant_r/activation	hamstrings_l/activation	bifemsh_l/activation	glut_max_l/activation	iliopsoas_l/activation	rect_fem_l/activation	  vasti_l/activation	gastroc_l/activation	 soleus_l/activation	tib_ant_l/activation	
          2.10000000	          1.12224496	          2.00888799	          0.90056791	         24.06877326	        -19.29241573	         -8.91804835	        -11.52630533	         -0.46520300	          9.88605874	         -7.24975211	          0.10000000	          0.10000000	          0.10000000	          0.10000000	          0.10000000	          0.10000000	          0.10000000	          0.10000000	          0.10000000	          0.10000000	          0.10000000	          0.10000000	          0.10000000	          0.10000000	          0.10000000	          0.10000000	          0.10000000	          0.10000000	
          2.11400000	          1.06873103	          2.02457106	          0.89978857	         24.11928381	        -19.20668577	        -10.36965359	        -13.41799843	         -1.35939275	          8.40106904	         -6.95444924	          0.10000000	          0.10000000	          0.10000000	          0.10000000	          0.10000000	          0.10000000	          0.10000000	          0.10000000	          0.10000000	          0.10000000	          0.10000000	          0.10000000	          0.10000000	          0.10000000	          0.10000000	          0.10000000	          0.10000000	          0.10000000	
          2.12800000	          1.00324248	          2.04020712	          0.89914924	         24.15611739	        -18.99231551	        -11.84523663	        -15.47385136	         -2.20528936	          6.72314242	         -6.65113257	          0.10000000	          0.10000000	          0.10000000	          0.10000000	          0.10000000	          0.10000000	          0.10000000	          0.10000000	          0.10000000	          0.10000000	          0.10000000	          0.10000000	          0.10000000	          0.10000000	          0.10000000	          0.10000000	          0.10000000	          0.10000000	
          2.14200000	          0.92460366	          2.05573190	          0.89868127	         24.17001833	        -18.61851315	        -13.32578444	        -17.72249507	         -2.96582743	          4.84275538	         -6.34303299	          0.10000000	          0.10000000	          0.10000000	          0.10000000	          0.10000000	          0.10000000	          0.10000000	          0.10000000	          0.10000000	          0.10000000	          0.10000000	          0.10000000	          0.10000000	          0.10000000	          0.10000000	          0.10000000	          0.10000000	          0.10000000	
          2.15600000	          0.83294299	          2.07110079	          0.89840549	         24.14968317	        -18.06134214	        -14.78513786	        -20.18326598	         -3.60046029	          2.77523769	         -6.03515902	          0.10000000	          0.10000000	          0.10000000	          0.10000000	          0.10000000	          0.10000000	          0.10000000	          0.10000000	          0.10000000	          0.10000000	          0.10000000	          0.10000000	          0.10000000	          0.10000000	          0.10000000	          0.10000000	          0.10000000	          0.10000000	
          2.17000000	          0.72959541	          2.08628168	          0.89833276	         24.08228405	        -17.30439577	        -16.19213340	        -22.86386961	         -4.07053863	          0.56176067	         -5.73383207	          0.10000000	          0.10000000	          0.10000000	          0.10000000	          0.10000000	          0.10000000	          0.10000000	          0.10000000	          0.10000000	          0.10000000	          0.10000000	          0.10000000	          0.10000000	          0.10000000	          0.10000000	          0.10000000	          0.10000000	          0.10000000	
          2.18400000	          0.61682399	          2.10125016	          0.89846532	         23.95443802	        -16.33885989	        -17.51351195	        -25.75911542	         -4.34464457	         -1.73297607	         -5.44597943	          0.10000000	          0.10000000	          0.10000000	          0.10000000	          0.10000000	          0.10000000	          0.10000000	          0.10000000	          0.10000000	          0.10000000	          0.10000000	          0.10000000	          0.10000000	          0.10000000	          0.10000000	          0.10000000	          0.10000000	          0.10000000	
          2.19800000	          0.49744248	          2.11598671	          0.89879863	         23.75344619	        -15.16317226	        -18.71704103	        -28.85055408	         -4.40279386	         -4.02608060	         -5.17834946	          0.10000000	          0.10000000	          0.10000000	          0.10000000	          0.10000000	          0.10000000	          0.10000000	          0.10000000	          0.10000000	          0.10000000	          0.10000000	          0.10000000	          0.10000000	          0.10000000	          0.10000000	          0.10000000	          0.10000000	          0.10000000	
